<?xml version="1.0" encoding="UTF-8"?>
<svg version="1.1" xmlns="http://www.w3.org/2000/svg" width="1776" height="914">
<path d="M0 0 C9.98416998 7.89445999 15.90099218 19.14057702 17.57685471 31.78397942 C17.74071447 35.31755251 17.75602915 38.81820236 17.70849609 42.35522461 C17.70869999 43.70655323 17.71111022 45.05788297 17.71549892 46.40920448 C17.72113195 50.08858219 17.69572425 53.76716223 17.66478753 57.44638944 C17.63671766 61.44819078 17.63800334 65.45000487 17.63542175 69.45188904 C17.6257652 77.32035807 17.58924553 85.18848535 17.54389173 93.05682057 C17.49174619 102.30266438 17.4677387 111.54852204 17.44455254 120.79447603 C17.39600695 139.68147614 17.31228397 158.56821985 17.21735477 177.45503616 C17.1424107 192.41644469 17.07865026 207.37787078 17.02099609 222.33935547 C16.92507211 247.10000534 16.81903936 271.86059671 16.70224094 296.62115717 C16.69242666 298.70429032 16.68266027 300.7874237 16.67294216 302.87055731 C16.61234323 315.85991551 16.54664266 328.84923025 16.4724369 341.83851814 C16.45190281 345.45128823 16.43301353 349.06405995 16.41582298 352.67684746 C16.29254568 378.25242611 15.81376288 403.80845438 15.125 429.375 C11.69072762 430.78829259 8.54195006 431.79176799 4.87915039 432.42822266 C3.85781509 432.60825836 2.8364798 432.78829407 1.78419495 432.9737854 C0.14498329 433.25359756 0.14498329 433.25359756 -1.52734375 433.5390625 C-2.66023331 433.73599701 -3.79312286 433.93293152 -4.96034241 434.13583374 C-7.35289809 434.5502802 -9.74593273 434.96196981 -12.1394043 435.37109375 C-15.79682304 435.9973158 -19.45216265 436.6347451 -23.10742188 437.2734375 C-25.43477947 437.67515389 -27.76224988 438.07621739 -30.08984375 438.4765625 C-31.18062729 438.6671524 -32.27141083 438.85774231 -33.39524841 439.05410767 C-46.45135254 441.26814653 -46.45135254 441.26814653 -49.65576172 439.2578125 C-51.3355273 436.66382928 -51.78196735 434.28103743 -52.3828125 431.25 C-52.64215576 429.99977051 -52.90149902 428.74954102 -53.16870117 427.46142578 C-53.30327728 426.79596741 -53.43785339 426.13050903 -53.57650757 425.44488525 C-64.48747252 372.11584378 -91.08022696 322.79445274 -134.875 289.375 C-135.52500977 288.87033203 -136.17501953 288.36566406 -136.84472656 287.84570312 C-153.34645156 275.07642247 -171.02096152 264.16065716 -189.92089844 255.29443359 C-191.24611221 254.67090098 -192.56699129 254.03808737 -193.88378906 253.39697266 C-213.36677918 243.92312644 -234.47499988 237.66730771 -255.875 234.375 C-257.00301025 234.20145996 -257.00301025 234.20145996 -258.15380859 234.02441406 C-292.67388838 229.00683076 -329.40845679 232.80869027 -362.21240234 244.58325195 C-365.92883509 245.68836761 -369.0288012 245.67086145 -372.875 245.375 C-375.97981884 239.51373265 -378.25451088 233.71329781 -380.2578125 227.3984375 C-380.55815399 226.46955719 -380.85849548 225.54067688 -381.16793823 224.58364868 C-382.11796128 221.6409924 -383.05916361 218.69560474 -384 215.75 C-384.63872954 213.76543393 -385.27804716 211.78105702 -385.91796875 209.796875 C-387.34457467 205.37158113 -388.76540885 200.94448134 -390.1807251 196.51556396 C-390.78702435 194.64624343 -391.42211747 192.78631129 -392.06201172 190.92822266 C-393.07565232 187.74484326 -393.28755771 186.43554171 -391.875 183.375 C-385.21901903 178.79901308 -377.99560546 175.17357037 -370.855896 171.41989136 C-367.25459467 169.52613689 -363.65865663 167.62225096 -360.0625 165.71875 C-359.34988007 165.34177475 -358.63726013 164.9647995 -357.90304565 164.57640076 C-352.15981026 161.53468709 -346.44676178 158.44042297 -340.75 155.3125 C-331.51176552 150.24350868 -322.21857887 145.28100811 -312.91540527 140.33270264 C-304.91910621 136.07846346 -296.94107797 131.79423123 -289 127.4375 C-280.00107808 122.50172768 -270.94431822 117.67965306 -261.875 112.875 C-251.89564831 107.58803104 -241.94161582 102.26198118 -232.0390625 96.83203125 C-224.67628456 92.79898721 -217.27890907 88.8318326 -209.875 84.875 C-201.52206793 80.41052122 -193.18274599 75.92315979 -184.875 71.375 C-174.86668693 65.89725231 -164.81223885 60.50706694 -154.75180054 55.12590027 C-154.16081573 54.80978287 -153.56983093 54.49366547 -152.9609375 54.16796875 C-152.36954987 53.85164993 -151.77816223 53.53533112 -151.16885376 53.20942688 C-145.02339433 49.92129213 -138.88598254 46.61827685 -132.75 43.3125 C-131.68555664 42.73902832 -130.62111328 42.16555664 -129.52441406 41.57470703 C-127.38049163 40.41951195 -125.23661132 39.26423869 -123.09277344 38.10888672 C-118.77182552 35.78055803 -114.45015452 33.45357344 -110.12841797 31.12670898 C-107.96331626 29.96097247 -105.79827696 28.79512002 -103.63330078 27.62915039 C-98.16798478 24.68581314 -92.70189828 21.74392271 -87.234375 18.8046875 C-85.59263306 17.9216394 -85.59263306 17.9216394 -83.91772461 17.02075195 C-81.73927322 15.84923064 -79.56040576 14.67848267 -77.38110352 13.50854492 C-72.12494555 10.68249427 -66.88348664 7.83404766 -61.66796875 4.93359375 C-60.68022461 4.38654785 -59.69248047 3.83950195 -58.67480469 3.27587891 C-56.83460214 2.2546952 -54.99771075 1.22750924 -53.16503906 0.19287109 C-36.07619887 -9.27473159 -16.9072669 -11.41009542 0 0 Z M-153.3125 130.1640625 C-164.18999078 144.01139451 -169.53139236 159.68171798 -167.875 177.375 C-165.31707289 194.54721732 -157.45281627 209.01461617 -143.5625 219.625 C-129.80904561 229.12773016 -113.61634891 233.64383175 -96.9921875 230.68359375 C-83.37685064 227.75441072 -72.73372113 222.37088595 -62.875 212.375 C-62.22660156 211.73691406 -61.57820313 211.09882813 -60.91015625 210.44140625 C-50.4462622 199.42798603 -45.86274689 184.34843148 -45.80029297 169.39990234 C-46.45360383 151.69218901 -53.75070562 136.47137473 -66.5625 124.28515625 C-92.39637335 102.94602775 -130.86129419 104.474702 -153.3125 130.1640625 Z " fill="#10B2E4" transform="translate(1714.875,93.625)"/>
<path d="M0 0 C29.87266661 -0.6114898 60.44398168 4.855089 82.8515625 25.95703125 C83.57988281 26.67117188 84.30820313 27.3853125 85.05859375 28.12109375 C85.88810547 28.91386719 85.88810547 28.91386719 86.734375 29.72265625 C104.78701834 48.6998285 106.15103132 77.55445114 106.29907227 102.16162109 C106.3119121 103.75117219 106.3250481 105.34072092 106.3384552 106.93026733 C106.45350632 121.33050804 106.51084035 135.7313959 106.55522251 150.13200951 C106.58855938 160.7650403 106.64839098 171.3972275 106.74273354 182.02989614 C106.80698598 189.52481484 106.8407449 197.01950262 106.85197204 204.51468623 C106.85953426 208.9858744 106.88073457 213.45603608 106.93499947 217.92692184 C106.98536926 222.12497028 106.9980635 226.32144598 106.98174858 230.51974869 C106.98235293 232.05933217 106.99666213 233.59898059 107.0256958 235.13829041 C107.23365798 246.77135621 107.23365798 246.77135621 104.31378365 250.12526989 C102.25021875 251.44971452 100.37353083 252.33244854 98.05859375 253.12109375 C97.1365918 253.52980713 96.21458984 253.93852051 95.26464844 254.35961914 C94.42836914 254.64313232 93.59208984 254.92664551 92.73046875 255.21875 C91.77712646 255.54335205 90.82378418 255.8679541 89.84155273 256.20239258 C88.84067627 256.52618896 87.8397998 256.84998535 86.80859375 257.18359375 C85.74648682 257.52865967 84.68437988 257.87372559 83.59008789 258.22924805 C35.80576547 273.35385695 -28.22856671 275.67210437 -73.56640625 252.30859375 C-90.3793161 242.80143754 -100.76331372 228.363455 -106.37890625 210.05859375 C-110.45120567 193.7673226 -110.39242443 172.7278063 -103.94140625 157.12109375 C-103.67827637 156.47430664 -103.41514648 155.82751953 -103.14404297 155.16113281 C-97.23032177 141.01773394 -88.31152987 129.93431801 -74.94140625 122.12109375 C-73.86246094 121.48816406 -72.78351563 120.85523438 -71.671875 120.203125 C-44.32956343 105.02690479 -10.43305612 100.53200624 20.18359375 96.24609375 C20.9184198 96.14245514 21.65324585 96.03881653 22.41033936 95.93203735 C32.61069757 94.51237916 42.77338816 93.63077553 53.05859375 93.12109375 C52.94732844 73.93224258 52.94732844 73.93224258 44 57.734375 C28.82791564 45.12658659 3.77781884 46.88612466 -14.52050781 48.42138672 C-34.33024451 50.61594547 -53.87343175 55.09622536 -72.4921875 62.23828125 C-74.94140625 63.12109375 -74.94140625 63.12109375 -76.94140625 63.12109375 C-80.29708843 54.79661214 -83.62890154 46.46284916 -86.94140625 38.12109375 C-87.29734863 37.2280957 -87.65329102 36.33509766 -88.02001953 35.41503906 C-88.90034129 33.19603507 -89.76762232 30.97254202 -90.62890625 28.74609375 C-91.10714844 27.52148438 -91.58539063 26.296875 -92.078125 25.03515625 C-92.94140625 22.12109375 -92.94140625 22.12109375 -91.94140625 19.12109375 C-89.33454438 17.8628235 -86.84570176 16.83864745 -84.12890625 15.87109375 C-83.29359375 15.57098389 -82.45828125 15.27087402 -81.59765625 14.96166992 C-55.44183463 5.89629993 -27.65588675 0.84968532 0 0 Z M-35.94140625 150.12109375 C-36.67359375 150.71535156 -37.40578125 151.30960938 -38.16015625 151.921875 C-47.16903053 160.03994641 -51.28321698 171.0911846 -52.25390625 182.93359375 C-51.8095207 195.37638924 -46.69977618 205.87738059 -37.75390625 214.43359375 C-20.69372923 228.45447873 2.97125108 230.46878934 24.22827148 228.67041016 C34.19824201 227.62930009 44.0397572 225.63051203 53.05859375 221.12109375 C53.05859375 190.43109375 53.05859375 159.74109375 53.05859375 128.12109375 C27.58088201 128.12109375 -15.56379917 133.29521749 -35.94140625 150.12109375 Z " fill="#FCFCFC" transform="translate(128.94140625,546.87890625)"/>
<path d="M0 0 C0.6983194 0.00087616 1.39663879 0.00175232 2.11611938 0.00265503 C14.26067739 0.05263833 25.76603632 1.11439529 37.5 4.375 C38.35029785 4.61105957 39.2005957 4.84711914 40.07666016 5.09033203 C53.8919039 9.06795279 66.69563344 14.89537491 79.5 21.375 C78.1320941 25.79817376 76.39753187 29.81401509 74.3125 33.9453125 C74.00932861 34.54882538 73.70615723 35.15233826 73.39379883 35.7741394 C72.43297467 37.68468941 71.46660908 39.59237138 70.5 41.5 C69.85119029 42.78757292 69.20274941 44.07533178 68.5546875 45.36328125 C67.36555376 47.72528806 66.17388011 50.08594588 64.98046875 52.44580078 C63.81451328 54.75271597 62.65343119 57.06180781 61.5 59.375 C57.79411134 58.74857611 54.59577374 57.69979118 51.140625 56.23046875 C50.11509521 55.80241943 49.08956543 55.37437012 48.03295898 54.93334961 C46.94958252 54.48096924 45.86620605 54.02858887 44.75 53.5625 C21.31863838 43.97671182 -5.74044886 38.26888955 -30.19140625 47.81640625 C-38.14476432 51.51424587 -44.47284827 56.02120193 -50.5 62.375 C-51.19609375 63.10074219 -51.8921875 63.82648437 -52.609375 64.57421875 C-71.32735463 85.94028464 -74.70348885 118.69763646 -73.37426758 145.953125 C-71.90401241 167.66508145 -68.29133775 188.96452884 -51.5 204.375 C-34.5305424 218.60924897 -13.78435562 220.65917014 7.5 219.375 C25.65517856 217.73864758 41.77298954 209.63303154 57.640625 201.24316406 C58.34703125 200.87674805 59.0534375 200.51033203 59.78125 200.1328125 C60.42126953 199.79652832 61.06128906 199.46024414 61.72070312 199.11376953 C63.5 198.375 63.5 198.375 66.5 198.375 C66.86762451 199.0548999 67.23524902 199.7347998 67.61401367 200.43530273 C69.30464999 203.56131984 70.99606989 206.68691233 72.6875 209.8125 C73.26564453 210.88177734 73.84378906 211.95105469 74.43945312 213.05273438 C75.00986328 214.10654297 75.58027344 215.16035156 76.16796875 216.24609375 C76.72919434 217.28491699 77.29041992 218.32374023 77.86865234 219.39404297 C79.73975563 222.81310479 81.67552066 226.1920934 83.64575195 229.55493164 C84.5 231.375 84.5 231.375 84.5 234.375 C54.71444343 251.42073667 26.43944072 263.59416255 -8.375 263.625 C-9.06119415 263.62567474 -9.74738831 263.62634949 -10.45437622 263.62704468 C-27.68069773 263.60021592 -43.28077106 261.19371371 -59.5 255.375 C-60.54542969 255.00632812 -61.59085937 254.63765625 -62.66796875 254.2578125 C-86.57304145 245.09999073 -104.75981784 226.85115961 -115.1953125 203.70703125 C-131.72884262 165.21697313 -131.21520026 114.59229901 -116.2578125 75.57421875 C-104.74065841 47.2197027 -83.61822379 23.09647201 -55.18261719 11.01171875 C-49.18464561 8.56868072 -43.07067354 6.50528953 -36.875 4.625 C-36.23151611 4.42632324 -35.58803223 4.22764648 -34.92504883 4.02294922 C-23.47146048 0.70005609 -11.87160711 -0.03668835 0 0 Z " fill="#FCFCFC" transform="translate(571.5,548.625)"/>
<path d="M0 0 C0.7101123 0.16628906 1.42022461 0.33257813 2.15185547 0.50390625 C24.39430297 5.86472823 42.70554149 17.94678158 55.625 37.125 C68.39772459 58.16591521 72.8389157 81.63331228 72 106 C71.95504395 107.31895264 71.95504395 107.31895264 71.90917969 108.66455078 C71.80422924 111.54774546 71.6867929 114.43007673 71.5625 117.3125 C71.52342529 118.23901367 71.48435059 119.16552734 71.4440918 120.12011719 C71.40195557 120.98411133 71.35981934 121.84810547 71.31640625 122.73828125 C71.26141968 123.89904175 71.26141968 123.89904175 71.20532227 125.08325195 C71 127 71 127 70 129 C9.28 129 -51.44 129 -114 129 C-111.25564731 172.63364198 -111.25564731 172.63364198 -88.6328125 208.80859375 C-65.14443138 228.35901187 -37.50530154 231.34963037 -8 230 C-2.07602751 229.45110975 3.39320378 227.98060169 9 226 C9.90766113 225.68321289 10.81532227 225.36642578 11.75048828 225.04003906 C24.66932346 220.46562465 37.37787752 215.33353273 50 210 C55.859375 220.25390625 55.859375 220.25390625 56.91601562 222.12158203 C57.65408133 223.40056346 58.414257 224.6669809 59.19335938 225.92138672 C60.20230742 227.57156378 61.10929832 229.28311008 62 231 C61 234 61 234 57.96484375 235.796875 C56.62817681 236.45970465 55.28520302 237.10990764 53.9375 237.75 C53.21796143 238.09853027 52.49842285 238.44706055 51.75708008 238.80615234 C49.51115052 239.88496177 47.2570442 240.94466864 45 242 C44.33419922 242.31549805 43.66839844 242.63099609 42.98242188 242.95605469 C9.86309074 258.546537 -30.03016974 264.99245756 -66 256 C-66.69222656 255.83371094 -67.38445312 255.66742187 -68.09765625 255.49609375 C-94.20783048 249.09886413 -118.62024134 234.59725927 -133.03149414 211.36108398 C-142.01486891 196.03402898 -146.87115061 177.5506304 -149 160 C-149.16628906 158.64455078 -149.16628906 158.64455078 -149.3359375 157.26171875 C-153.41602066 115.63384324 -147.22146049 70.8155865 -120.625 37.25 C-119.10505629 35.48109999 -117.56288522 33.73107651 -116 32 C-115.18015625 31.08605469 -114.3603125 30.17210937 -113.515625 29.23046875 C-84.90294516 -1.03294262 -39.58545215 -9.63325015 0 0 Z M-81 38 C-81.90105469 38.68835938 -81.90105469 38.68835938 -82.8203125 39.390625 C-102.84375059 55.01429418 -108.68883906 83.8218734 -112 107 C-62.83 107 -13.66 107 37 107 C37.22481864 91.36260867 37.22481864 91.36260867 35.8125 76 C35.68012939 75.12827148 35.54775879 74.25654297 35.41137695 73.35839844 C32.64340237 56.65419248 23.29962974 42.04693616 9.9375 31.625 C-16.16630935 13.47469506 -57.33568598 17.28184555 -81 38 Z " fill="#FBFBFA" transform="translate(1082,554)"/>
<path d="M0 0 C-0.52688605 5.26886052 -3.22443087 9.29734421 -5.875 13.75 C-6.32230469 14.52988281 -6.76960937 15.30976562 -7.23046875 16.11328125 C-7.66746094 16.85449219 -8.10445312 17.59570312 -8.5546875 18.359375 C-8.95155762 19.03452148 -9.34842773 19.70966797 -9.75732422 20.40527344 C-11 22 -11 22 -14 23 C-16.59540186 21.89282857 -19.05585522 20.72000877 -21.5625 19.4375 C-48.95574853 6.03597933 -86.4454602 -3.01864475 -116.18359375 6.87109375 C-117.57771484 7.42990234 -117.57771484 7.42990234 -119 8 C-119.77472656 8.30035156 -120.54945313 8.60070312 -121.34765625 8.91015625 C-123.36289359 9.8071116 -125.14557248 10.80730196 -127 12 C-127.74765625 12.48082031 -128.4953125 12.96164062 -129.265625 13.45703125 C-136.95150312 18.89059078 -141.48655138 25.94703573 -144 35 C-145.11580384 45.8336768 -143.78716281 55.60223166 -136.9375 64.3125 C-127.08911682 74.58085688 -111.44760623 77.99951246 -98.25 81.875 C-96.48390381 82.39815796 -96.48390381 82.39815796 -94.68212891 82.93188477 C-88.20562309 84.83194459 -81.71657088 86.61203083 -75.16723633 88.2421875 C-46.27662576 95.43642191 -11.65263369 105.97557952 5.3125 132.4375 C14.68181496 148.31022182 15.86668834 169.03491669 11.375 186.8125 C7.62346058 199.391191 1.08188588 207.87780989 -8 217 C-8.56203125 217.59683594 -9.1240625 218.19367188 -9.703125 218.80859375 C-30.04657969 238.56315897 -66.46591075 241.22807506 -93 241 C-127.56010438 239.97554159 -161.82119874 231.05174489 -191 212 C-189.49007247 206.36473475 -186.67528581 201.99965796 -183.5 197.1875 C-183.00113281 196.41212891 -182.50226562 195.63675781 -181.98828125 194.83789062 C-178.26433644 189.13216822 -178.26433644 189.13216822 -176 188 C-173.53599702 189.26390288 -171.18762568 190.58454071 -168.8125 192 C-142.93624835 206.92726453 -116.81863768 214.35383094 -86.875 214.375 C-85.75220139 214.37799103 -85.75220139 214.37799103 -84.60671997 214.38104248 C-66.42251668 214.37555216 -48.68837872 212.29325026 -35 199 C-26.64329284 190.00480286 -23.64113918 179.18465699 -23.7890625 167.12890625 C-24.36773571 158.54525358 -27.38396544 152.39529295 -33 146 C-33.45632813 145.42765625 -33.91265625 144.8553125 -34.3828125 144.265625 C-38.11380751 140.00721184 -42.58002582 137.23545687 -47.4375 134.4375 C-48.03868652 134.0856665 -48.63987305 133.73383301 -49.25927734 133.37133789 C-62.52134304 126.04708364 -77.32956688 122.39490353 -91.86871338 118.56280518 C-109.76537605 113.82265806 -127.19560371 108.88305264 -144 101 C-144.6904541 100.68369629 -145.3809082 100.36739258 -146.09228516 100.04150391 C-154.25119792 96.24420906 -160.70071318 91.3992755 -167 85 C-167.65871094 84.34 -168.31742188 83.68 -168.99609375 83 C-179.56415036 71.72740628 -182.08159257 57.97046335 -182 43 C-180.89001709 25.87454943 -174.08437302 12.11114003 -161.65234375 0.27734375 C-117.3414856 -37.7686508 -47.10262036 -24.386902 0 0 Z " fill="#FBFBFB" transform="translate(878,573)"/>
<path d="M0 0 C1.02246826 0.11762695 2.04493652 0.23525391 3.09838867 0.35644531 C10.17559444 1.26573224 16.99044047 2.82588221 23.875 4.6875 C22.42860644 13.79658885 20.71613487 22.83794444 18.875 31.875 C18.67922363 32.86802124 18.67922363 32.86802124 18.47949219 33.88110352 C18.09880155 35.81171516 17.70586199 37.73989899 17.3125 39.66796875 C17.08433594 40.80129639 16.85617187 41.93462402 16.62109375 43.10229492 C16.37488281 43.9554126 16.12867188 44.80853027 15.875 45.6875 C13.23732423 47.00633789 12.03092121 46.48277506 9.15234375 45.91015625 C-17.04655652 41.06666208 -45.14525395 38.98189455 -70.125 49.6875 C-70.455 120.3075 -70.785 190.9275 -71.125 263.6875 C-87.955 263.6875 -104.785 263.6875 -122.125 263.6875 C-122.125 182.1775 -122.125 100.6675 -122.125 16.6875 C-84.32200178 -0.49568101 -41.0730952 -4.73260321 0 0 Z " fill="#FDFDFD" transform="translate(415.125,549.3125)"/>
<path d="M0 0 C1.04063599 -0.00060425 1.04063599 -0.00060425 2.10229492 -0.0012207 C27.55945152 0.08308414 55.2860245 5.41461746 76.875 19.4375 C75.19567048 25.2475941 72.48291608 30.44618579 69.75 35.8125 C69.04810547 37.20275391 69.04810547 37.20275391 68.33203125 38.62109375 C67.18330944 40.89509406 66.03088119 43.16713282 64.875 45.4375 C64.36864014 45.22134033 63.86228027 45.00518066 63.34057617 44.7824707 C34.48497 32.57420491 1.186353 23.95648876 -29.64453125 34.28125 C-31.90821432 35.20099514 -33.99072632 36.24879061 -36.125 37.4375 C-36.97191406 37.89640625 -37.81882812 38.3553125 -38.69140625 38.828125 C-58.34598262 50.346881 -71.55509601 71.21717906 -77.375 92.9375 C-84.94384664 126.18082798 -87.31282801 169.45778666 -69.15625 199.71875 C-62.13385302 210.54784237 -53.76149057 219.61050547 -42.125 225.4375 C-41.25746094 225.87707031 -40.38992188 226.31664062 -39.49609375 226.76953125 C-16.67005957 237.27776117 11.34851631 237.85996287 34.84570312 229.36328125 C42.26395796 226.56616015 49.57918792 223.53781054 56.875 220.4375 C57.69307129 220.09267578 58.51114258 219.74785156 59.35400391 219.39257812 C63.20653446 217.76814929 67.0480781 216.12161948 70.875 214.4375 C72.81724243 217.47616235 74.75292695 220.51895024 76.6875 223.5625 C77.23470703 224.4184375 77.78191406 225.274375 78.34570312 226.15625 C81.09841861 230.49386229 83.69958286 234.78134401 85.875 239.4375 C49.20158902 262.9947734 2.08754993 269.66717312 -40.26513672 260.99951172 C-59.81655358 256.71537451 -76.99145169 247.54705247 -91.125 233.4375 C-92.27935547 232.30054688 -92.27935547 232.30054688 -93.45703125 231.140625 C-118.2707745 205.27007838 -121.9983641 165.76326849 -121.34375 131.7109375 C-120.15813324 92.38402952 -107.92705416 55.35407595 -78.98046875 27.8515625 C-73.50218577 22.86532445 -67.5943914 19.00447369 -61.125 15.4375 C-60.50544434 15.08606934 -59.88588867 14.73463867 -59.24755859 14.37255859 C-40.88974164 4.06813278 -20.96921739 -0.01260321 0 0 Z " fill="#FBFBFB" transform="translate(1316.125,549.5625)"/>
<path d="M0 0 C5.28955426 3.93980593 9.00277698 10.24697509 10.265625 16.6875 C11.80691559 32.5820592 5.63668084 44.49307394 -4.17578125 56.44287109 C-6.68188785 59.43727588 -9.23340559 62.38913766 -11.80859375 65.32421875 C-14.47013052 68.3606443 -17.01851116 71.47639018 -19.546875 74.625 C-22.54047698 78.31441217 -25.64303437 81.71784353 -29.05859375 85.015625 C-30.86037797 86.81320925 -32.51414756 88.69410302 -34.171875 90.625 C-37.21117151 94.15384763 -40.44454347 97.41755027 -43.76171875 100.68359375 C-45.6918313 102.64428234 -47.50172398 104.66569714 -49.296875 106.75 C-54.94349168 113.29087724 -61.12507898 119.12884993 -67.734375 124.6875 C-68.50394531 125.34621094 -69.27351563 126.00492188 -70.06640625 126.68359375 C-70.84371094 127.32425781 -71.62101562 127.96492187 -72.421875 128.625 C-73.47955078 129.50478516 -73.47955078 129.50478516 -74.55859375 130.40234375 C-77.14598994 131.93062624 -78.77882533 131.94112861 -81.734375 131.6875 C-83.02345283 97.78084666 -59.62234257 31.73208457 -36.734375 6.6875 C-25.96812576 -2.49233172 -13.11768494 -7.26010236 0 0 Z " fill="#11B0E3" transform="translate(1567.734375,415.3125)"/>
<path d="M0 0 C6.74329125 7.01242482 8.46602838 14.05521474 8.42944336 23.68261719 C8.0633012 36.32385462 1.87067086 45.52581766 -6 55 C-6.63881104 55.7729541 -6.63881104 55.7729541 -7.29052734 56.56152344 C-10.0140336 59.84833937 -12.78121947 63.09533131 -15.56738281 66.32910156 C-16.99070577 67.9891599 -18.39932931 69.66065665 -19.8046875 71.3359375 C-31.29377945 84.98390816 -43.68063346 97.77748644 -56.22305298 110.45321655 C-57.30948366 111.55269299 -58.3935218 112.65453965 -59.47494507 113.75894165 C-72.27517439 126.81166456 -72.27517439 126.81166456 -80 131 C-80.99 131 -81.98 131 -83 131 C-84.43379211 125.41813007 -83.43938471 121.13194018 -82.0625 115.6875 C-81.83723633 114.77379639 -81.61197266 113.86009277 -81.37988281 112.91870117 C-78.46495007 101.44187934 -74.76303705 90.22121693 -71 79 C-70.4738208 77.41179443 -70.4738208 77.41179443 -69.93701172 75.79150391 C-47.4057792 7.95009698 -47.4057792 7.95009698 -28 -2 C-18.37104516 -5.81262085 -8.6638641 -6.36566015 0 0 Z " fill="#10B1E3" transform="translate(1497,373)"/>
<path d="M0 0 C0.66 0.33 1.32 0.66 2 1 C-1.96 4.96 -5.92 8.92 -10 13 C-10 8.41771462 -7.08388033 6.1816619 -4 3 C-1.625 1.0625 -1.625 1.0625 0 0 Z " fill="#1C99C2" transform="translate(1464,374)"/>
<path d="M0 0 C0.66 0.33 1.32 0.66 2 1 C-1.63 4.63 -5.26 8.26 -9 12 C-9 8.00102358 -7.64683965 6.93298448 -5 4 C-3.36643049 2.62631655 -1.7074998 1.28062485 0 0 Z " fill="#1A9DC8" transform="translate(1536,418)"/>
</svg>
